# xmcd
#
# Track frame offsets: 
#        180
#        15545
#        31975
#        50083
#        76804
#        94805
#        104779
#        119922
#        134859
#        155359
#        172881
#        184762
#        220790
#        233786
#        257281
#        280468
#        295125
#        313573
#
# Disc length: 4410 seconds
#
# Revision: 1
# Processed by: cddbd v1.5.2PL0 Copyright (c) Steve Scherf et al.
# Submitted via: ExactAudioCopy v1.0b3
#
DISCID=05113812
DTITLE=Various Artist - Sax and Sex 1
DYEAR=1995
DGENRE=Instrumental
TTITLE0=George Saxon - Only You
TTITLE1=Fausto Papetti - Petite Fleur
TTITLE2=Stuart Mc Donald - It's Imposible
TTITLE3=Clarence Clemons - Into the Blue Forest
TTITLE4=The John Tesh Project - Fields of Gold
TTITLE5=George Saxon - Tequila
TTITLE6=Ben Webster - Love's Away
TTITLE7=Fausto Papetti - Woman in Love
TTITLE8=George Parreira - Sailing
TTITLE9=Gerry Mulligan Quartet - Dream a Little Dream
TTITLE10=Fausto Papetti - Le Grisbi
TTITLE11=Lou Donaldson - Midnight Creeper
TTITLE12=Stuart Mc Donald - Amazing Grace
TTITLE13=The John Tesh Project - One More Night
TTITLE14=Joe Livano - Angel Eyes
TTITLE15=George Saxon - Flamingo
TTITLE16=Fausto Papetti - The House of The Rising Sun
TTITLE17=Ben Webster - That's All
EXTD=
EXTT0=
EXTT1=
EXTT2=
EXTT3=
EXTT4=
EXTT5=
EXTT6=
EXTT7=
EXTT8=
EXTT9=
EXTT10=
EXTT11=
EXTT12=
EXTT13=
EXTT14=
EXTT15=
EXTT16=
EXTT17=
PLAYORDER=
